<svg id="Layer_1" data-name="Layer 1" xmlns="http://www.w3.org/2000/svg" viewBox="0 0 300 142"><defs><style>.cls-1{fill:#232f3e;}.cls-2{fill:#f7971d;fill-rule:evenodd;}</style></defs><path class="cls-1" d="M117.53,61.77A10.74,10.74,0,0,0,118,65.2,17.61,17.61,0,0,0,119.2,68a1.78,1.78,0,0,1,.27.87,1.5,1.5,0,0,1-.74,1.15L116.3,71.6a1.91,1.91,0,0,1-1,.34,1.6,1.6,0,0,1-1.14-.54,8.3,8.3,0,0,1-1.38-1.79c-.38-.64-.78-1.4-1.18-2.25a14.22,14.22,0,0,1-11.31,5.32,10.54,10.54,0,0,1-7.68-2.76,9.86,9.86,0,0,1-2.83-7.41,9.9,9.9,0,0,1,3.51-7.91q3.5-3,9.42-3a29.26,29.26,0,0,1,4.08.31q2.11.3,4.41.84V49.83c0-2.91-.61-4.95-1.82-6.14s-3.28-1.78-6.23-1.78a18,18,0,0,0-4.13.51,29.84,29.84,0,0,0-4.12,1.3,10.28,10.28,0,0,1-1.34.51,3.13,3.13,0,0,1-.6.1c-.54,0-.81-.42-.81-1.21v-1.9a2.62,2.62,0,0,1,.27-1.35,2.75,2.75,0,0,1,1.08-.8,25.14,25.14,0,0,1,4.84-1.73,23.61,23.61,0,0,1,6-.74q6.85,0,10,3.12t3.19,9.44Zm-15.68,5.89a12.6,12.6,0,0,0,4-.71,8.36,8.36,0,0,0,3.65-2.48A6,6,0,0,0,110.81,62a13.05,13.05,0,0,0,.38-3.35V57a33,33,0,0,0-3.55-.64,31.61,31.61,0,0,0-3.63-.24q-3.86,0-5.74,1.56a5.44,5.44,0,0,0-1.9,4.47,5.47,5.47,0,0,0,1.42,4.09,5.6,5.6,0,0,0,4.06,1.39m31,4.3a2.43,2.43,0,0,1-1.49-.37,3.09,3.09,0,0,1-.81-1.52L121.5,40.2a6.91,6.91,0,0,1-.33-1.55.84.84,0,0,1,.73-.95.74.74,0,0,1,.21,0h4.06a2.33,2.33,0,0,1,1.5.37,3.17,3.17,0,0,1,.77,1.5l6.41,25.24,5.94-25.24a2.64,2.64,0,0,1,.74-1.5,2.41,2.41,0,0,1,1.53-.37h3.07a2.46,2.46,0,0,1,1.54.37,2.57,2.57,0,0,1,.73,1.5l6,25.57L161,39.57a3.16,3.16,0,0,1,.76-1.5,2.36,2.36,0,0,1,1.5-.37h3.54a.84.84,0,0,1,.94.72.81.81,0,0,1,0,.22,2.88,2.88,0,0,1-.07.59,7.75,7.75,0,0,1-.27.94l-9.21,29.51a3,3,0,0,1-.8,1.51,2.38,2.38,0,0,1-1.47.37h-3.2a2.87,2.87,0,0,1-1.55-.13,3,3,0,0,1-.75-1.56l-6-24.9-6,24.92a2.93,2.93,0,0,1-.75,1.55,5.52,5.52,0,0,1-1.55.54Zm49.49,1a26.77,26.77,0,0,1-6-.68,17.56,17.56,0,0,1-4.5-1.57,2.27,2.27,0,0,1-1.43-2.18v-2c0-.82.3-1.23.89-1.23a2.19,2.19,0,0,1,.71.14,8.24,8.24,0,0,1,1,.43,21.41,21.41,0,0,0,4.29,1.36,23.93,23.93,0,0,0,4.63.48,10.63,10.63,0,0,0,5.69-1.28,4.13,4.13,0,0,0,2-3.68,3.75,3.75,0,0,0-1.06-2.73,10.09,10.09,0,0,0-3.91-2L179,56.26a12,12,0,0,1-6.23-3.95,9.25,9.25,0,0,1-1.94-5.65,8.61,8.61,0,0,1,1.06-4.36,10.48,10.48,0,0,1,2.79-3.21,12.37,12.37,0,0,1,4.05-2,16.62,16.62,0,0,1,4.9-.68,19.25,19.25,0,0,1,2.63.17c.88.11,1.7.26,2.52.42a21.15,21.15,0,0,1,2.21.61,9.38,9.38,0,0,1,1.63.69,3.44,3.44,0,0,1,1.16,1,2.19,2.19,0,0,1,.34,1.27v1.85c0,.81-.3,1.22-.88,1.22a3.94,3.94,0,0,1-1.5-.48,18.19,18.19,0,0,0-7.49-1.49,10.19,10.19,0,0,0-5.18,1.09,3.74,3.74,0,0,0-1.84,3.47,3.66,3.66,0,0,0,1.16,2.75,11.37,11.37,0,0,0,4.29,2.13l5.54,1.78a11.8,11.8,0,0,1,6,3.74A8.81,8.81,0,0,1,196,62.09a9.76,9.76,0,0,1-1,4.53,10.35,10.35,0,0,1-2.83,3.44,13,13,0,0,1-4.32,2.18,19.59,19.59,0,0,1-5.54.75"/><path class="cls-2" d="M189.83,91.66c-12.73,9.4-31.18,14.39-47.07,14.39a85.2,85.2,0,0,1-57.5-21.93c-1.19-1.08-.13-2.54,1.3-1.69a115.88,115.88,0,0,0,57.56,15.26,114.46,114.46,0,0,0,43.88-9c2.15-.91,4,1.42,1.85,3"/><path class="cls-2" d="M195.13,85.62c-1.63-2.09-10.76-1-14.87-.5-1.24.15-1.43-.94-.31-1.72,7.28-5.12,19.22-3.64,20.61-1.93s-.37,13.7-7.2,19.41c-1,.88-2,.43-1.58-.75,1.54-3.84,5-12.43,3.35-14.51"/></svg>