<svg id="Layer_1" data-name="Layer 1" xmlns="http://www.w3.org/2000/svg" viewBox="0 0 300 142"><defs><style>.cls-1,.cls-2{fill:#0080ff;}.cls-2{fill-rule:evenodd;}</style></defs><path class="cls-1" d="M63.33,84.48v-7a11,11,0,0,0,11-11.08,11.19,11.19,0,0,0-.74-3.93,10.48,10.48,0,0,0-6.22-6.27A11.07,11.07,0,0,0,52.32,66.51h-7A18,18,0,0,1,69,49.44,17.27,17.27,0,0,1,80.36,60.77,18,18,0,0,1,68.91,83.55a18.21,18.21,0,0,1-5.58.91Z"/><polygon class="cls-2" points="63.06 77.67 56.25 77.67 56.25 70.86 56.25 70.86 63.06 70.86 63.06 70.86 63.06 77.67"/><polygon class="cls-2" points="56.25 83.12 50.81 83.12 50.81 83.12 50.81 77.67 56.25 77.67 56.25 83.12"/><polygon class="cls-2" points="50.81 77.67 46.45 77.67 46.45 77.67 46.45 73.31 46.45 73.31 50.81 73.31 50.81 73.31 50.81 77.67"/><path class="cls-1" d="M109.24,59.15A13.12,13.12,0,0,0,101.62,57H95.18V77.67h6.44a12.37,12.37,0,0,0,7.62-2.29,7.48,7.48,0,0,0,2.64-3.32,13.08,13.08,0,0,0,0-9.65A7.32,7.32,0,0,0,109.24,59.15ZM98.71,60.52h2.05a10.76,10.76,0,0,1,5.58,1.3,5.8,5.8,0,0,1,2.37,5.35,6.25,6.25,0,0,1-2.37,5.6h0a10.06,10.06,0,0,1-5.54,1.36H98.72Z"/><path class="cls-1" d="M117.2,56.64a2.13,2.13,0,0,0-1.6.64,2.2,2.2,0,0,0-.67,1.6,2.08,2.08,0,0,0,.67,1.61,2.2,2.2,0,0,0,1.6.67,2,2,0,0,0,1.61-.67,2.31,2.31,0,0,0,.69-1.61,1.93,1.93,0,0,0-.69-1.6A2.21,2.21,0,0,0,117.2,56.64Z"/><rect class="cls-1" x="115.33" y="62.97" width="3.54" height="14.43"/><path class="cls-1" d="M132.28,64.06a6.1,6.1,0,0,0-3.65-1.46,6.73,6.73,0,0,0-5,2.07,7.22,7.22,0,0,0-2,5.21,7.41,7.41,0,0,0,2,5.22,6.67,6.67,0,0,0,5,2.05A12.27,12.27,0,0,0,132.48,76v.31a4,4,0,0,1-1,2.87,3.67,3.67,0,0,1-2.69,1,4.72,4.72,0,0,1-4.13-2.48l-2.54,2.44v0a8.84,8.84,0,0,0,2.43,2.21,7.29,7.29,0,0,0,4,1.06,7,7,0,0,0,5.19-2,7.2,7.2,0,0,0,1.95-5.28V63h-3.54v1.09Zm-1,8.73a3.2,3.2,0,0,1-2.51,1.06,3.07,3.07,0,0,1-2.49-1.06,4.83,4.83,0,0,1,0-5.72,3.38,3.38,0,0,1,4.78-.22c.08.07.15.15.22.22a4.18,4.18,0,0,1,1,2.87,4.26,4.26,0,0,1-1,2.85Z"/><rect class="cls-1" x="139.02" y="62.97" width="3.54" height="14.43"/><path class="cls-1" d="M140.87,56.64a2.24,2.24,0,0,0-2.27,2.24,2,2,0,0,0,.67,1.61,2.2,2.2,0,0,0,1.6.67,2,2,0,0,0,1.6-.67,2.27,2.27,0,0,0,.68-1.61,1.93,1.93,0,0,0-.68-1.6A2.17,2.17,0,0,0,140.87,56.64Z"/><path class="cls-1" d="M150.69,59.16h-3.51V63H145v3.54h2.18v6a5.76,5.76,0,0,0,1.15,4,5.35,5.35,0,0,0,4,1.16h2V74.13H153a2.57,2.57,0,0,1-1.8-.35,3,3,0,0,1-.45-1.94v-5.6h3.54V63h-3.54V59.16Z"/><rect class="cls-1" x="171.14" y="56.98" width="3.54" height="20.69"/><path class="cls-1" d="M211.81,72.33A9.33,9.33,0,0,1,210,74h0a3.47,3.47,0,0,1-1.89.49,3.4,3.4,0,0,1-2.66-1.2,5,5,0,0,1,0-6.14A3.26,3.26,0,0,1,208,66a5,5,0,0,1,3.48,2l2.4-2.31h0A7.38,7.38,0,0,0,203.6,64h0a7.32,7.32,0,0,0-.9.77,8,8,0,0,0,0,10.86,7,7,0,0,0,5.18,2.16,7.19,7.19,0,0,0,6.21-3.2Z"/><path class="cls-1" d="M226.78,65a5.91,5.91,0,0,0-2.09-1.75,7.08,7.08,0,0,0-3-.64,6.2,6.2,0,0,0-5,2.24,8.36,8.36,0,0,0-1.85,5.47,7.55,7.55,0,0,0,2,5.42,7,7,0,0,0,5.29,2.09,6.75,6.75,0,0,0,5.85-3v-.09l-2.23-2.31h0a11,11,0,0,1-.82.85,4.06,4.06,0,0,1-1.06.77,4,4,0,0,1-1.86.4,3.45,3.45,0,0,1-2.48-.9,3.21,3.21,0,0,1-1-2.16h9.74V70.05a12.36,12.36,0,0,0-.43-2.7A8,8,0,0,0,226.78,65Zm-8,3.43a3.5,3.5,0,0,1,1-1.73,2.58,2.58,0,0,1,1.93-.76,2.62,2.62,0,0,1,2,.76,2.89,2.89,0,0,1,.74,1.69h-5.64Z"/><path class="cls-1" d="M240.75,64h0a7,7,0,0,0-4.69-1.43,8.1,8.1,0,0,0-3.49.79A6.08,6.08,0,0,0,230,65.67h0l2.42,2.23A3.91,3.91,0,0,1,236,65.85a3.12,3.12,0,0,1,1.94.59,1.88,1.88,0,0,1,.73,1.6v.84a14.17,14.17,0,0,0-2.53-.43,7.15,7.15,0,0,0-4.41,1.28,4.43,4.43,0,0,0-1.6,3.62,4.15,4.15,0,0,0,1.43,3.3,5.39,5.39,0,0,0,3.51,1.21,6.13,6.13,0,0,0,3.87-1.53V77.4h3.54V68A4.74,4.74,0,0,0,240.75,64Zm-6.32,8a3,3,0,0,1,1.74-.43,7.87,7.87,0,0,1,2.76.53v1.42a4.41,4.41,0,0,1-3.2,1.09,2.18,2.18,0,0,1-1.46-.42,1.42,1.42,0,0,1-.5-1.09,1.37,1.37,0,0,1,.58-1.12Z"/><path class="cls-1" d="M256.45,64.54a5.44,5.44,0,0,0-4.23-1.78A5,5,0,0,0,248.73,64V63h-3.54V77.4h3.54V69.5a5,5,0,0,1,1-2.59,2.57,2.57,0,0,1,2.17-.92,2.39,2.39,0,0,1,1.91.82,3.17,3.17,0,0,1,.68,2.26v8.6H258V69.26A6.8,6.8,0,0,0,256.45,64.54Z"/><path class="cls-1" d="M166.7,64h0a7.09,7.09,0,0,0-4.7-1.49,8.2,8.2,0,0,0-3.49.78,6.27,6.27,0,0,0-2.58,2.42h0l2.43,2.23a3.91,3.91,0,0,1,3.57-2.05,3.14,3.14,0,0,1,1.95.59,1.91,1.91,0,0,1,.73,1.6v.84a17.56,17.56,0,0,0-2.71-.43,7.1,7.1,0,0,0-4.4,1.28,4.4,4.4,0,0,0-1.6,3.62,4.11,4.11,0,0,0,1.42,3.3,5.41,5.41,0,0,0,3.51,1.21,7,7,0,0,0,4-1.53V77.4h3.54V68A4.94,4.94,0,0,0,166.7,64Zm-6.6,8a3.05,3.05,0,0,1,1.74-.43,8,8,0,0,1,2.77.51V73.5a4.48,4.48,0,0,1-3.21,1.09,2.18,2.18,0,0,1-1.46-.42,1.38,1.38,0,0,1-.49-1.09A1.23,1.23,0,0,1,160,72Z"/><path class="cls-1" d="M188,77.82a10.65,10.65,0,1,1,10.64-10.67h0v0A10.65,10.65,0,0,1,188,77.82Zm.12-17.49A6.89,6.89,0,1,0,195,67.22h0a6.88,6.88,0,0,0-6.89-6.89Z"/></svg>