<?xml version="1.0" encoding="utf-8"?>
<!-- Generator: Adobe Illustrator 24.2.3, SVG Export Plug-In . SVG Version: 6.00 Build 0)  -->
<svg version="1.1" id="Layer_1" xmlns="http://www.w3.org/2000/svg" xmlns:xlink="http://www.w3.org/1999/xlink" x="0px" y="0px"
	 viewBox="0 0 439 238.3" style="enable-background:new 0 0 439 238.3;" xml:space="preserve">
<style type="text/css">
	.st0{fill-rule:evenodd;clip-rule:evenodd;fill:#000E9C;}
	.st1{fill:#000E9C;}
</style>
<g>
	<path class="st0" d="M272.4,42.2c12.8,23.1,10.4,51.6-6.1,72.2h-34.8l10.7-18.9h-14.2L244.8,66h14.3L272.4,42.2L272.4,42.2z
		 M203.7,114.4h-35.5C151.5,93.8,149,65.1,162.1,42l23,40l25.4-44.2h37.3L203.7,114.4L203.7,114.4L203.7,114.4L203.7,114.4z"/>
	<g>
		<path class="st1" d="M49.4,171.3c0-20.4,10.2-30.2,26.9-30.2c16.7,0,26.9,9.8,26.9,30.2c0,20.2-10.2,30.1-26.9,30.1
			C59.6,201.5,49.4,191.5,49.4,171.3z M55.5,171.3c0,16.8,7.7,24.8,20.8,24.8c13.2,0,20.8-8,20.8-24.8c0-16.9-7.7-24.9-20.8-24.9
			C63.1,146.4,55.5,154.4,55.5,171.3z"/>
		<path class="st1" d="M147.1,143.5c0.3-0.7,1.1-1.9,2.8-1.9c1.6,0,2.9,1.3,2.9,2.9c0,0.5-0.2,1-0.3,1.3L132.4,199
			c-0.4,1.2-1.6,2-2.8,2c-1.1,0-2.3-0.8-2.8-2l-20.2-53.1c-0.1-0.3-0.3-0.8-0.3-1.3c0-1.6,1.3-2.9,2.9-2.9s2.5,1.2,2.8,1.9
			l17.5,46.3L147.1,143.5z"/>
		<path class="st1" d="M165,173.2V198c0,1.6-1.3,2.9-2.9,2.9c-1.6,0-2.9-1.4-2.9-2.9v-53.5c0-1.6,1.3-2.9,2.9-2.9
			c1.6,0,2.9,1.4,2.9,2.9v23.3h30v-23.3c0-1.6,1.3-2.9,2.9-2.9c1.6,0,2.9,1.4,2.9,2.9V198c0,1.6-1.3,2.9-2.9,2.9
			c-1.6,0-2.9-1.4-2.9-2.9v-24.8H165z"/>
		<path class="st1" d="M228.5,159.9c7.7,0,11.9,4,13.3,5.9c0.4,0.6,0.6,1,0.6,1.6c0,1.5-1.1,2.5-2.5,2.5c-0.9,0-1.5-0.3-2.1-1
			c-1.3-1.5-3.6-4-9.3-4c-7.9,0-12.1,5.1-12.1,15.7c0,10.8,4.2,15.8,12.1,15.8c5,0,8-2.2,10-3.7c0.6-0.4,1-0.6,1.6-0.6
			c1.4,0,2.5,1.1,2.5,2.5c0,0.8-0.3,1.4-1.1,2.2c-1.9,1.6-6,4.7-13,4.7c-11.1,0-17.7-6.6-17.7-20.8
			C210.7,166.5,217.4,159.9,228.5,159.9z"/>
		<path class="st1" d="M255.9,141.7v49.2c0,3.4,1.1,4.9,3.4,4.9c1.4,0,2.6,1.1,2.6,2.6s-1.2,2.6-2.6,2.6c-5.8,0-9-3.4-9-10.1v-49.2
			c0-1.5,1.3-2.8,2.8-2.8C254.7,138.9,255.9,140.2,255.9,141.7z"/>
		<path class="st1" d="M302.9,180.6c0,14.1-6.9,20.8-18.1,20.8c-11.1,0-18.1-6.6-18.1-20.8c0-14.1,7-20.7,18.1-20.7
			C296,159.9,302.9,166.5,302.9,180.6z M297.3,180.6c0-10.9-4.6-15.7-12.5-15.7c-7.9,0-12.5,4.8-12.5,15.7c0,11,4.6,15.8,12.5,15.8
			C292.7,196.4,297.3,191.6,297.3,180.6z"/>
		<path class="st1" d="M316.1,163.2v22.5c0,5.6,1.8,10.4,10.5,10.4c8.7,0,10.5-4.8,10.5-10.4v-22.5c0-1.6,1.3-2.8,2.8-2.8
			c1.5,0,2.7,1.2,2.7,2.8v22.5c0,8.2-2.7,15.7-16,15.7c-13.3,0-16-7.5-16-15.7v-22.5c0-1.6,1.2-2.8,2.8-2.8
			C314.8,160.5,316.1,161.7,316.1,163.2z"/>
		<path class="st1" d="M379.4,165.5v-23.9c0-1.6,1.2-2.8,2.8-2.8c1.6,0,2.8,1.2,2.8,2.8v42.7c0,11.4-7.1,17-16.9,17
			c-11.1,0-17.7-6.6-17.7-20.8c0-14.1,6.2-20.7,17.3-20.7C373.2,159.9,377.4,162.8,379.4,165.5z M379.4,172.5c0,0-3.3-7.6-11.4-7.6
			c-7.8,0-12.1,5.1-12.1,15.7c0,10.8,4.2,15.8,12.1,15.8c6.6,0,11.4-3.8,11.4-12V172.5z"/>
	</g>
</g>
<g>
	<path class="st1" d="M395.3,152.8c-0.7,0-1.4-0.1-2-0.4c-0.6-0.3-1.2-0.6-1.7-1.1c-0.5-0.5-0.9-1.1-1.1-1.8
		c-0.3-0.7-0.4-1.5-0.4-2.3c0-0.9,0.1-1.6,0.4-2.3c0.3-0.7,0.7-1.3,1.1-1.8c0.5-0.5,1-0.9,1.7-1.1c0.6-0.3,1.3-0.4,2-0.4
		s1.4,0.1,2,0.4c0.6,0.3,1.2,0.7,1.7,1.1c0.5,0.5,0.9,1.1,1.1,1.8c0.3,0.7,0.4,1.5,0.4,2.3c0,0.9-0.1,1.6-0.4,2.3
		c-0.3,0.7-0.7,1.3-1.1,1.8c-0.5,0.5-1,0.9-1.7,1.1C396.7,152.6,396,152.8,395.3,152.8z M395.3,151.9c0.6,0,1.2-0.1,1.7-0.4
		c0.5-0.2,1-0.6,1.4-1c0.4-0.4,0.7-0.9,0.9-1.5c0.2-0.6,0.3-1.2,0.3-1.9s-0.1-1.3-0.3-1.9c-0.2-0.6-0.5-1.1-0.9-1.5
		c-0.4-0.4-0.9-0.8-1.4-1c-0.5-0.2-1.1-0.4-1.7-0.4c-0.6,0-1.2,0.1-1.7,0.4c-0.5,0.2-1,0.6-1.4,1c-0.4,0.4-0.7,0.9-0.9,1.5
		c-0.2,0.6-0.3,1.2-0.3,1.9s0.1,1.3,0.3,1.9c0.2,0.6,0.5,1.1,0.9,1.5c0.4,0.4,0.8,0.7,1.4,1C394.1,151.8,394.7,151.9,395.3,151.9z
		 M393.3,150v-6h2c0.3,0,0.6,0,0.8,0.1c0.3,0.1,0.5,0.2,0.7,0.3c0.2,0.1,0.4,0.3,0.5,0.6c0.1,0.2,0.2,0.5,0.2,0.9
		c0,0.4-0.1,0.7-0.3,1c-0.2,0.3-0.5,0.5-0.8,0.6l1.4,2.5h-1.1l-1.1-2.2h-1.4v2.2H393.3z M394.3,147.1h0.8c0.4,0,0.8-0.1,1.1-0.2
		c0.3-0.2,0.4-0.4,0.4-0.8c0-0.3-0.1-0.6-0.3-0.8c-0.2-0.2-0.6-0.3-1.1-0.3h-0.9V147.1z"/>
</g>
</svg>
